<svg width="16" height="16" viewBox="0 0 16 16" fill="none" xmlns="http://www.w3.org/2000/svg">
	<path d="M11.4946 6.13102C11.6431 6.3641 11.7173 6.75407 11.7173 7.30094V8.51188C11.7173 9.06397 11.6437 9.46045 11.4966 9.70133C11.3494 9.94222 11.1261 10.0627 10.8267 10.0627C10.5298 10.0627 10.3052 9.94092 10.1528 9.69743C10.0005 9.45394 9.92432 9.05876 9.92432 8.51188V7.30094C9.92432 6.75407 9.99918 6.3641 10.1489 6.13102C10.2987 5.89795 10.522 5.78141 10.8188 5.78141C11.1209 5.78141 11.3462 5.89795 11.4946 6.13102Z" fill="white" fill-opacity="0.48"/>
	<path fill-rule="evenodd" clip-rule="evenodd" d="M1.3335 8.00016C1.3335 11.6821 4.31826 14.6668 8.00016 14.6668C11.6821 14.6668 14.6668 11.6821 14.6668 8.00016C14.6668 4.31826 11.6821 1.3335 8.00016 1.3335C4.31826 1.3335 1.3335 4.31826 1.3335 8.00016ZM2.26676 7.95329V8.73454H4.33317V7.95329H2.26676ZM6.36702 6.22673V10.7658H7.33968V5.05876H7.21859L4.98031 5.87907V6.69157L6.36702 6.22673ZM10.8267 10.8439C12.0689 10.8439 12.6899 10.021 12.6899 8.37516V7.44548C12.6899 6.5887 12.5265 5.96696 12.1997 5.58024C11.8729 5.19352 11.4126 5.00016 10.8188 5.00016C10.2251 5.00016 9.76546 5.19352 9.43994 5.58024C9.11442 5.96696 8.95166 6.5887 8.95166 7.44548V8.37516C8.95166 9.23454 9.11637 9.86084 9.4458 10.2541C9.77523 10.6473 10.2355 10.8439 10.8267 10.8439Z" fill="white" fill-opacity="0.48"/>
</svg>
