<svg width="14" height="12" viewBox="0 0 14 12" fill="none" xmlns="http://www.w3.org/2000/svg">
<path fill-rule="evenodd" clip-rule="evenodd" d="M0.319921 7.09721C-0.10664 6.60804 -0.10664 5.84974 0.319921 5.36057C0.518981 5.13037 0.797037 5.00173 1.08928 5.00173C1.38156 5.00173 1.6612 5.13038 1.86022 5.36057L4.66726 8.69943L12.141 0.358837C12.34 0.128638 12.6197 0 12.9119 0C13.2042 0 13.4822 0.128638 13.6813 0.358837C14.1062 0.848008 14.1062 1.60631 13.6813 2.09548L5.4367 11.3044C5.23764 11.5346 4.95959 11.665 4.66734 11.6667C4.37507 11.665 4.097 11.5346 3.89798 11.3061L0.319921 7.09721Z" fill="white"/>
</svg>
