<svg width="106" height="85" viewBox="0 0 106 85" fill="none" xmlns="http://www.w3.org/2000/svg">
<path d="M15.1139 31.6831L3.21021 37.8276L6.61127 82.3753H25.3172L32.1193 76.2308L30.4188 31.6831H15.1139Z" fill="url(#paint0_linear_1_4500)"/>
<path d="M90.8856 31.6831L102.789 37.8276L99.3882 82.3753H80.6824L73.8802 76.2308L75.5807 31.6831H90.8856Z" fill="url(#paint1_linear_1_4500)"/>
<g filter="url(#filter0_i_1_4500)">
<path d="M31.1489 0C21.6633 0 14.013 7.60005 14.1525 16.8849L14.3742 31.6408C14.3878 32.5502 15.1448 33.2804 16.0738 33.2804H16.091C21.3242 33.2804 25.7082 37.1577 26.2377 42.2544L26.6081 45.8203C26.7579 47.2626 28.7204 47.9387 30.0274 47.2569C31.2512 46.6184 32.6223 46.1995 34.0943 46.059C39.1704 45.5745 47.0226 44.9285 52.995 44.9285C58.9674 44.9285 66.8197 45.5745 71.8958 46.059C73.3674 46.1995 74.7382 46.6182 75.9617 47.2564C77.2687 47.9381 79.2307 47.2619 79.3805 45.8197L79.7509 42.2544C80.2804 37.1577 84.6644 33.2804 89.8975 33.2804H89.9158C90.8449 33.2804 91.6018 32.5502 91.6155 31.6408L91.8371 16.8849C91.9766 7.60005 84.3264 0 74.8407 0H31.1489Z" fill="url(#paint2_linear_1_4500)"/>
</g>
<path d="M25.6977 48.1434C25.6091 45.1429 28.2317 42.5828 31.7621 42.2915C37.6084 41.8091 46.4192 41.1875 52.9986 41.1875C59.5779 41.1875 68.3888 41.8091 74.2351 42.2915C77.7654 42.5828 80.3881 45.1429 80.2994 48.1434L79.6426 76.0383C61.8822 76.0383 44.1219 76.0383 26.3615 76.0383L25.6977 48.1434Z" fill="url(#paint3_linear_1_4500)"/>
<path d="M25.6977 54.4789C25.6091 51.4783 28.2317 48.9182 31.7621 48.6269C37.6084 48.1446 46.4192 47.5229 52.9986 47.5229C59.5779 47.5229 68.3887 48.1446 74.2351 48.6269C77.7654 48.9182 80.3881 51.4783 80.2994 54.4789L79.6426 76.7105C79.5495 79.8609 76.5047 82.3738 72.7804 82.3738H33.2167C29.4925 82.3738 26.4476 79.8609 26.3546 76.7105L25.6977 54.4789Z" fill="url(#paint4_linear_1_4500)"/>
<path d="M25.6977 54.637C25.6091 51.5682 28.2317 48.9499 31.7621 48.652C37.6084 48.1587 46.4192 47.5229 52.9986 47.5229C59.5779 47.5229 68.3887 48.1587 74.2351 48.652C77.7654 48.9499 80.3881 51.5682 80.2994 54.6369L80.239 57.5722C80.146 60.7942 76.5047 63.3642 72.7804 63.3642H33.2167C29.4925 63.3642 25.7908 60.7942 25.6977 57.5722V54.637Z" fill="url(#paint5_linear_1_4500)"/>
<path d="M0.0283626 42.7989C-0.282522 39.9511 2.11693 37.4771 5.18973 37.4771H16.3769C19.0389 37.4771 21.2689 39.3539 21.5382 41.821L25.671 79.679C25.9819 82.5269 23.5825 85.0009 20.5097 85.0009H9.32254C6.66054 85.0009 4.43049 83.1241 4.16117 80.657L0.0283626 42.7989Z" fill="url(#paint6_linear_1_4500)"/>
<path d="M105.97 42.7989C106.281 39.9511 103.881 37.4771 100.808 37.4771H89.6212C86.9592 37.4771 84.7291 39.3539 84.4598 41.821L80.327 79.679C80.0161 82.5269 82.4156 85.0009 85.4884 85.0009H96.6755C99.3375 85.0009 101.568 83.1241 101.837 80.657L105.97 42.7989Z" fill="url(#paint7_linear_1_4500)"/>
<defs>
<filter id="filter0_i_1_4500" x="14.1506" y="0" width="77.6885" height="47.5239" filterUnits="userSpaceOnUse" color-interpolation-filters="sRGB">
<feFlood flood-opacity="0" result="BackgroundImageFix"/>
<feBlend mode="normal" in="SourceGraphic" in2="BackgroundImageFix" result="shape"/>
<feColorMatrix in="SourceAlpha" type="matrix" values="0 0 0 0 0 0 0 0 0 0 0 0 0 0 0 0 0 0 127 0" result="hardAlpha"/>
<feOffset dy="1.30458"/>
<feComposite in2="hardAlpha" operator="arithmetic" k2="-1" k3="1"/>
<feColorMatrix type="matrix" values="0 0 0 0 0.992157 0 0 0 0 0.270588 0 0 0 0 0.270588 0 0 0 1 0"/>
<feBlend mode="normal" in2="shape" result="effect1_innerShadow_1_4500"/>
</filter>
<linearGradient id="paint0_linear_1_4500" x1="20.2156" y1="33.2192" x2="31.817" y2="77.7017" gradientUnits="userSpaceOnUse">
<stop stop-color="#FE4545"/>
<stop offset="0.182292" stop-color="#9E1818"/>
<stop offset="0.815985" stop-color="#790F0F"/>
</linearGradient>
<linearGradient id="paint1_linear_1_4500" x1="85.784" y1="33.2192" x2="74.1825" y2="77.7017" gradientUnits="userSpaceOnUse">
<stop stop-color="#FE4545"/>
<stop offset="0.182292" stop-color="#9E1818"/>
<stop offset="0.815985" stop-color="#790F0F"/>
</linearGradient>
<linearGradient id="paint2_linear_1_4500" x1="52.9972" y1="12.9424" x2="52.9972" y2="45.2983" gradientUnits="userSpaceOnUse">
<stop stop-color="#DF2020"/>
<stop offset="1" stop-color="#790F0F"/>
</linearGradient>
<linearGradient id="paint3_linear_1_4500" x1="57.8168" y1="42.2436" x2="57.8168" y2="77.0944" gradientUnits="userSpaceOnUse">
<stop stop-color="#FE4545"/>
<stop offset="0.182292" stop-color="#9E1818"/>
<stop offset="1" stop-color="#790F0F"/>
</linearGradient>
<linearGradient id="paint4_linear_1_4500" x1="52.9991" y1="59.0473" x2="52.9991" y2="83.2492" gradientUnits="userSpaceOnUse">
<stop offset="0.145833" stop-color="#861818"/>
<stop offset="1" stop-color="#9D1818"/>
</linearGradient>
<linearGradient id="paint5_linear_1_4500" x1="52.9991" y1="47.7582" x2="52.9991" y2="64.2596" gradientUnits="userSpaceOnUse">
<stop stop-color="#851818"/>
<stop offset="1" stop-color="#9D1818"/>
</linearGradient>
<linearGradient id="paint6_linear_1_4500" x1="13.0727" y1="38.0139" x2="19.0866" y2="85.0675" gradientUnits="userSpaceOnUse">
<stop stop-color="#BA1C1C"/>
<stop offset="1" stop-color="#9B1818"/>
</linearGradient>
<linearGradient id="paint7_linear_1_4500" x1="92.9253" y1="38.0139" x2="86.9115" y2="85.0675" gradientUnits="userSpaceOnUse">
<stop stop-color="#BA1C1C"/>
<stop offset="1" stop-color="#9B1818"/>
</linearGradient>
</defs>
</svg>
