<svg width="24" height="24" viewBox="0 0 24 24" fill="none" xmlns="http://www.w3.org/2000/svg">
<path fill-rule="evenodd" clip-rule="evenodd" d="M15 10.375C15 12.0319 13.6569 13.375 12 13.375C10.3431 13.375 9 12.0319 9 10.375C9 8.71815 10.3431 7.375 12 7.375C13.6569 7.375 15 8.71815 15 10.375ZM13 10.375C13 10.9273 12.5523 11.375 12 11.375C11.4477 11.375 11 10.9273 11 10.375C11 9.82272 11.4477 9.375 12 9.375C12.5523 9.375 13 9.82272 13 10.375Z" fill="white"/>
<path fill-rule="evenodd" clip-rule="evenodd" d="M11.4009 20.1747C11.4011 20.1748 11.4012 20.1749 12.0011 19.3749L11.4009 20.1747L12.0012 20.6248L12.6011 20.1748L12.0011 19.3749C12.6011 20.1748 12.601 20.175 12.6011 20.1748L12.6029 20.1735L12.6059 20.1713L12.6155 20.164L12.6491 20.1383C12.6776 20.1164 12.7182 20.0849 12.7698 20.0442C12.8729 19.9629 13.0197 19.8448 13.2001 19.6938C13.5605 19.3922 14.0573 18.9571 14.6088 18.4187C15.6922 17.3609 17.0316 15.861 17.9418 14.157C18.6063 13.1352 18.9908 11.8831 19.0004 10.4306L19.0004 10.4287L19.0006 10.3797L19.0006 10.3702L19.0005 10.3443C18.9836 6.49256 15.8561 3.375 12.0005 3.375C8.16515 3.375 5.05031 6.45947 5.00113 10.2834C5.00038 10.3138 5 10.3443 5 10.375C5 10.427 5.00066 10.4789 5.00198 10.5308C5.02812 11.9391 5.4092 13.1555 6.0564 14.1526C6.96649 15.8578 8.30702 17.3589 9.39152 18.4175C9.94346 18.9563 10.4408 19.3917 10.8016 19.6936C10.9822 19.8447 11.1292 19.9628 11.2324 20.0442C11.284 20.0849 11.3247 20.1165 11.3532 20.1384L11.3868 20.1641L11.3965 20.1714L11.4009 20.1747ZM7.0009 10.3143C7.03331 7.58097 9.25938 5.375 12.0005 5.375C14.7546 5.375 16.9886 7.60169 17.0005 10.3529L17.0006 10.375L17.0004 10.4174L17.0004 10.4187C16.9929 11.5293 16.6992 12.4112 16.2465 13.0951L16.2194 13.1361L16.1964 13.1795C15.4254 14.6373 14.2384 15.9851 13.2116 16.9876C12.7455 17.4426 12.3219 17.8174 12.001 18.089C11.6796 17.8172 11.2553 17.4419 10.7886 16.9863C9.76078 15.9831 8.573 14.6343 7.80225 13.1759L7.77943 13.1327L7.7525 13.092C7.31059 12.423 7.02102 11.5655 7.00158 10.4907L7.00141 10.4827C7.00047 10.4468 7 10.4109 7 10.375C7 10.3597 7.00021 10.3444 7.00061 10.3292L7.00081 10.3217L7.0009 10.3143Z" fill="white"/>
</svg>
