<svg width="14" height="14" viewBox="0 0 14 14" fill="none" xmlns="http://www.w3.org/2000/svg">
<path fill-rule="evenodd" clip-rule="evenodd" d="M12.9231 5.92308C13.5178 5.92308 14 6.40523 14 7C14 7.59477 13.5178 8.07692 12.9231 8.07692H8.07692V12.9231C8.07692 13.5178 7.59477 14 7 14C6.40523 14 5.92308 13.5178 5.92308 12.9231V8.07692H1.07692C0.482155 8.07692 -9.53674e-07 7.59477 -9.53674e-07 7C-9.53674e-07 6.40523 0.482155 5.92308 1.07692 5.92308H5.92308V1.07692C5.92308 0.482155 6.40523 0 7 0C7.59477 0 8.07692 0.482155 8.07692 1.07692V5.92308H12.9231Z" fill="#090A0B"/>
</svg>
