<svg width="24" height="24" viewBox="0 0 24 24" fill="none" xmlns="http://www.w3.org/2000/svg">
<path fill-rule="evenodd" clip-rule="evenodd" d="M13.3567 3.80753C13.5537 3.61062 13.8208 3.5 14.0994 3.5C14.3779 3.5 14.6451 3.61062 14.8421 3.80753L16.3329 5.30007L16.3351 5.30223C16.5219 5.48847 16.6317 5.73823 16.6428 6.00185C16.6538 6.26649 16.5645 6.52553 16.3926 6.72706L16.3909 6.72897C16.2824 6.85551 16.2256 7.01835 16.232 7.18493C16.2383 7.35118 16.3071 7.50892 16.4245 7.62674C16.5425 7.74406 16.7004 7.8126 16.8668 7.81869C17.0333 7.82478 17.1961 7.76777 17.3224 7.65906L17.3254 7.6565C17.5269 7.48462 17.786 7.39525 18.0506 7.40632C18.3143 7.41735 18.5642 7.52728 18.7504 7.71418L18.7524 7.71619L20.2431 9.20687C20.44 9.40386 20.5508 9.67115 20.5508 9.94971C20.5508 10.2283 20.4402 10.4954 20.2432 10.6924L17.8626 13.0731C17.688 13.2477 17.4779 13.3825 17.2469 13.4685C17.161 13.7004 17.0261 13.9112 16.8512 14.0865L10.745 20.1923C10.548 20.3892 10.2807 20.5 10.0022 20.5C9.72363 20.5 9.45649 20.3894 9.25949 20.1925L7.76866 18.7016L7.76666 18.6996C7.57975 18.5134 7.46982 18.2635 7.45879 17.9998C7.44772 17.7352 7.53709 17.4762 7.70898 17.2746L7.711 17.2723C7.81962 17.1458 7.87646 16.983 7.87014 16.8164C7.86382 16.6498 7.79481 16.4917 7.67693 16.3738C7.55905 16.256 7.40099 16.187 7.2344 16.1806C7.06781 16.1743 6.90498 16.2312 6.77851 16.3398L6.77614 16.3418C6.57462 16.5137 6.31558 16.6031 6.05094 16.592C5.78727 16.581 5.53745 16.471 5.3512 16.2842L5.34915 16.2821L3.85847 14.7914C3.66155 14.5944 3.55078 14.3271 3.55078 14.0486C3.55078 13.7701 3.6614 13.5029 3.85831 13.3059L9.96371 7.20186C10.1383 7.02757 10.3488 6.89248 10.5795 6.80656C10.6655 6.57452 10.8006 6.36356 10.9759 6.18829L13.3567 3.80753ZM11.2435 8.52114L5.71478 14.0487L6.21484 14.5487C6.55518 14.4011 6.92707 14.3298 7.30404 14.3441C7.93363 14.368 8.53097 14.6288 8.97648 15.0743C9.42199 15.5198 9.68278 16.1171 9.70666 16.7467C9.72095 17.1237 9.64967 17.4956 9.50205 17.8359L10.0022 18.3361L15.5313 12.8073C15.6163 12.5648 15.7546 12.3442 15.9362 12.162C16.1184 11.9792 16.3392 11.8399 16.5824 11.7541L18.3868 9.94971L17.887 9.44991C17.5473 9.59753 17.176 9.66907 16.7996 9.6553C16.1703 9.63228 15.5728 9.37255 15.1267 8.92806L15.1255 8.92679C14.6802 8.4814 14.4195 7.88434 14.3955 7.25501C14.3811 6.87799 14.4523 6.50605 14.5999 6.16563L14.0991 5.66425L12.295 7.46829C12.21 7.71064 12.0718 7.931 11.8903 8.11308C11.708 8.296 11.4869 8.43542 11.2435 8.52114Z" fill="#090A0B"/>
<path fill-rule="evenodd" clip-rule="evenodd" d="M12.0435 8.27731C12.2229 8.0978 12.5138 8.09767 12.6933 8.27701L13.0659 8.6493C13.2455 8.82865 13.2456 9.11956 13.0662 9.29908C12.8869 9.47859 12.596 9.47872 12.4165 9.29937L12.0438 8.92708C11.8643 8.74773 11.8642 8.45682 12.0435 8.27731Z" fill="#090A0B"/>
<path d="M14.8478 11.0808C15.0273 10.9014 15.3182 10.9016 15.4975 11.0811L15.8698 11.4537C16.0492 11.6332 16.049 11.9241 15.8695 12.1035C15.69 12.2828 15.3991 12.2827 15.2198 12.1032L14.8475 11.7306C14.6681 11.551 14.6683 11.2601 14.8478 11.0808Z" fill="#090A0B"/>
<path d="M13.4694 9.70241C13.6489 9.52306 13.9398 9.52319 14.1192 9.7027L14.4915 10.0753C14.6708 10.2548 14.6707 10.5458 14.4912 10.7251C14.3116 10.9044 14.0207 10.9043 13.8414 10.7248L13.4691 10.3522C13.2897 10.1727 13.2899 9.88176 13.4694 9.70241Z" fill="#090A0B"/>
</svg>
